<svg xmlns="http://www.w3.org/2000/svg" xmlns:xlink="http://www.w3.org/1999/xlink" width="393" height="273" viewBox="0 0 393 273">
  <defs>
    <filter id="Rectangle_1851" x="0" y="0" width="197" height="273" filterUnits="userSpaceOnUse">
      <feOffset input="SourceAlpha"/>
      <feGaussianBlur stdDeviation="1" result="blur"/>
      <feFlood flood-opacity="0.161"/>
      <feComposite operator="in" in2="blur"/>
      <feComposite in="SourceGraphic"/>
    </filter>
    <filter id="Rectangle_1849" x="2" y="0" width="194" height="273" filterUnits="userSpaceOnUse">
      <feOffset input="SourceAlpha"/>
      <feGaussianBlur stdDeviation="1" result="blur-2"/>
      <feFlood flood-opacity="0.161"/>
      <feComposite operator="in" in2="blur-2"/>
      <feComposite in="SourceGraphic"/>
    </filter>
    <filter id="Rectangle_1611" x="4" y="0" width="191" height="273" filterUnits="userSpaceOnUse">
      <feOffset input="SourceAlpha"/>
      <feGaussianBlur stdDeviation="1" result="blur-3"/>
      <feFlood flood-opacity="0.161"/>
      <feComposite operator="in" in2="blur-3"/>
      <feComposite in="SourceGraphic"/>
    </filter>
    <filter id="Rectangle_1852" x="198" y="0" width="195" height="273" filterUnits="userSpaceOnUse">
      <feOffset input="SourceAlpha"/>
      <feGaussianBlur stdDeviation="1" result="blur-4"/>
      <feFlood flood-opacity="0.161"/>
      <feComposite operator="in" in2="blur-4"/>
      <feComposite in="SourceGraphic"/>
    </filter>
    <filter id="Rectangle_1850" x="199" y="0" width="192" height="273" filterUnits="userSpaceOnUse">
      <feOffset input="SourceAlpha"/>
      <feGaussianBlur stdDeviation="1" result="blur-5"/>
      <feFlood flood-opacity="0.161"/>
      <feComposite operator="in" in2="blur-5"/>
      <feComposite in="SourceGraphic"/>
    </filter>
    <filter id="Rectangle_1848" x="200" y="0" width="189" height="273" filterUnits="userSpaceOnUse">
      <feOffset input="SourceAlpha"/>
      <feGaussianBlur stdDeviation="1" result="blur-6"/>
      <feFlood flood-opacity="0.161"/>
      <feComposite operator="in" in2="blur-6"/>
      <feComposite in="SourceGraphic"/>
    </filter>
  </defs>
  <g id="Group_17278" data-name="Group 17278" transform="translate(-972 -396)">
    <g id="Component_1_2" data-name="Component 1 – 2" transform="translate(973 397)">
      <rect id="Rectangle_1855" data-name="Rectangle 1855" width="391" height="271" fill="#4885ed" opacity="0.2"/>
      <g transform="matrix(1, 0, 0, 1, -1, -1)" filter="url(#Rectangle_1851)">
        <rect id="Rectangle_1851-2" data-name="Rectangle 1851" width="191" height="267" transform="translate(3 3)" fill="#fff"/>
      </g>
      <g transform="matrix(1, 0, 0, 1, -1, -1)" filter="url(#Rectangle_1849)">
        <rect id="Rectangle_1849-2" data-name="Rectangle 1849" width="188" height="267" transform="translate(5 3)" fill="#fff"/>
      </g>
      <g transform="matrix(1, 0, 0, 1, -1, -1)" filter="url(#Rectangle_1611)">
        <rect id="Rectangle_1611-2" data-name="Rectangle 1611" width="185" height="267" transform="translate(7 3)" fill="#fff"/>
      </g>
      <g transform="matrix(1, 0, 0, 1, -1, -1)" filter="url(#Rectangle_1852)">
        <rect id="Rectangle_1852-2" data-name="Rectangle 1852" width="189" height="267" transform="translate(201 3)" fill="#fff"/>
      </g>
      <g transform="matrix(1, 0, 0, 1, -1, -1)" filter="url(#Rectangle_1850)">
        <rect id="Rectangle_1850-2" data-name="Rectangle 1850" width="186" height="267" transform="translate(202 3)" fill="#fff"/>
      </g>
      <g transform="matrix(1, 0, 0, 1, -1, -1)" filter="url(#Rectangle_1848)">
        <rect id="Rectangle_1848-2" data-name="Rectangle 1848" width="183" height="267" transform="translate(203 3)" fill="#fff"/>
      </g>
      <g id="Group_16766" data-name="Group 16766" transform="translate(-5349 -9506)">
        <g id="Group_16765" data-name="Group 16765">
          <rect id="Rectangle_1853" data-name="Rectangle 1853" width="7" height="7" rx="3.5" transform="translate(5528 9528)" fill="#797a7a"/>
          <rect id="Rectangle_1854" data-name="Rectangle 1854" width="7" height="7" rx="3.5" transform="translate(5554 9528)" fill="#797a7a"/>
          <path id="Path_2747" data-name="Path 2747" d="M0,0A47.266,47.266,0,0,1,12.714-2,54.413,54.413,0,0,1,26,0V3A58.237,58.237,0,0,0,12.714,1.143,50.551,50.551,0,0,0,0,3Z" transform="translate(5532 9530)" fill="#797a7a"/>
        </g>
        <g id="Group_16765-2" data-name="Group 16765" transform="translate(0 27)">
          <rect id="Rectangle_1853-2" data-name="Rectangle 1853" width="7" height="7" rx="3.5" transform="translate(5528 9528)" fill="#797a7a"/>
          <rect id="Rectangle_1854-2" data-name="Rectangle 1854" width="7" height="7" rx="3.5" transform="translate(5554 9528)" fill="#797a7a"/>
          <path id="Path_2747-2" data-name="Path 2747" d="M0,0A47.266,47.266,0,0,1,12.714-2,54.413,54.413,0,0,1,26,0V3A58.237,58.237,0,0,0,12.714,1.143,50.551,50.551,0,0,0,0,3Z" transform="translate(5532 9530)" fill="#797a7a"/>
        </g>
        <g id="Group_16765-3" data-name="Group 16765" transform="translate(0 54)">
          <rect id="Rectangle_1853-3" data-name="Rectangle 1853" width="7" height="7" rx="3.5" transform="translate(5528 9528)" fill="#797a7a"/>
          <rect id="Rectangle_1854-3" data-name="Rectangle 1854" width="7" height="7" rx="3.5" transform="translate(5554 9528)" fill="#797a7a"/>
          <path id="Path_2747-3" data-name="Path 2747" d="M0,0A47.266,47.266,0,0,1,12.714-2,54.413,54.413,0,0,1,26,0V3A58.237,58.237,0,0,0,12.714,1.143,50.551,50.551,0,0,0,0,3Z" transform="translate(5532 9530)" fill="#797a7a"/>
        </g>
        <g id="Group_16765-4" data-name="Group 16765" transform="translate(0 81)">
          <rect id="Rectangle_1853-4" data-name="Rectangle 1853" width="7" height="7" rx="3.5" transform="translate(5528 9528)" fill="#797a7a"/>
          <rect id="Rectangle_1854-4" data-name="Rectangle 1854" width="7" height="7" rx="3.5" transform="translate(5554 9528)" fill="#797a7a"/>
          <path id="Path_2747-4" data-name="Path 2747" d="M0,0A47.266,47.266,0,0,1,12.714-2,54.413,54.413,0,0,1,26,0V3A58.237,58.237,0,0,0,12.714,1.143,50.551,50.551,0,0,0,0,3Z" transform="translate(5532 9530)" fill="#797a7a"/>
        </g>
        <g id="Group_16765-5" data-name="Group 16765" transform="translate(0 108)">
          <rect id="Rectangle_1853-5" data-name="Rectangle 1853" width="7" height="7" rx="3.5" transform="translate(5528 9528)" fill="#797a7a"/>
          <rect id="Rectangle_1854-5" data-name="Rectangle 1854" width="7" height="7" rx="3.5" transform="translate(5554 9528)" fill="#797a7a"/>
          <path id="Path_2747-5" data-name="Path 2747" d="M0,0A47.266,47.266,0,0,1,12.714-2,54.413,54.413,0,0,1,26,0V3A58.237,58.237,0,0,0,12.714,1.143,50.551,50.551,0,0,0,0,3Z" transform="translate(5532 9530)" fill="#797a7a"/>
        </g>
        <g id="Group_16765-6" data-name="Group 16765" transform="translate(0 135)">
          <rect id="Rectangle_1853-6" data-name="Rectangle 1853" width="7" height="7" rx="3.5" transform="translate(5528 9528)" fill="#797a7a"/>
          <rect id="Rectangle_1854-6" data-name="Rectangle 1854" width="7" height="7" rx="3.5" transform="translate(5554 9528)" fill="#797a7a"/>
          <path id="Path_2747-6" data-name="Path 2747" d="M0,0A47.266,47.266,0,0,1,12.714-2,54.413,54.413,0,0,1,26,0V3A58.237,58.237,0,0,0,12.714,1.143,50.551,50.551,0,0,0,0,3Z" transform="translate(5532 9530)" fill="#797a7a"/>
        </g>
        <g id="Group_16765-7" data-name="Group 16765" transform="translate(0 162)">
          <rect id="Rectangle_1853-7" data-name="Rectangle 1853" width="7" height="7" rx="3.5" transform="translate(5528 9528)" fill="#797a7a"/>
          <rect id="Rectangle_1854-7" data-name="Rectangle 1854" width="7" height="7" rx="3.5" transform="translate(5554 9528)" fill="#797a7a"/>
          <path id="Path_2747-7" data-name="Path 2747" d="M0,0A47.266,47.266,0,0,1,12.714-2,54.413,54.413,0,0,1,26,0V3A58.237,58.237,0,0,0,12.714,1.143,50.551,50.551,0,0,0,0,3Z" transform="translate(5532 9530)" fill="#797a7a"/>
        </g>
        <g id="Group_16765-8" data-name="Group 16765" transform="translate(0 189)">
          <rect id="Rectangle_1853-8" data-name="Rectangle 1853" width="7" height="7" rx="3.5" transform="translate(5528 9528)" fill="#797a7a"/>
          <rect id="Rectangle_1854-8" data-name="Rectangle 1854" width="7" height="7" rx="3.5" transform="translate(5554 9528)" fill="#797a7a"/>
          <path id="Path_2747-8" data-name="Path 2747" d="M0,0A47.266,47.266,0,0,1,12.714-2,54.413,54.413,0,0,1,26,0V3A58.237,58.237,0,0,0,12.714,1.143,50.551,50.551,0,0,0,0,3Z" transform="translate(5532 9530)" fill="#797a7a"/>
        </g>
        <g id="Group_16765-9" data-name="Group 16765" transform="translate(0 216)">
          <rect id="Rectangle_1853-9" data-name="Rectangle 1853" width="7" height="7" rx="3.5" transform="translate(5528 9528)" fill="#797a7a"/>
          <rect id="Rectangle_1854-9" data-name="Rectangle 1854" width="7" height="7" rx="3.5" transform="translate(5554 9528)" fill="#797a7a"/>
          <path id="Path_2747-9" data-name="Path 2747" d="M0,0A47.266,47.266,0,0,1,12.714-2,54.413,54.413,0,0,1,26,0V3A58.237,58.237,0,0,0,12.714,1.143,50.551,50.551,0,0,0,0,3Z" transform="translate(5532 9530)" fill="#797a7a"/>
        </g>
      </g>
    </g>
  </g>
</svg>
