<svg xmlns="http://www.w3.org/2000/svg" width="26.001" height="26.001" viewBox="0 0 26.001 26.001">
  <g id="Group_16767" data-name="Group 16767" transform="translate(-5387.67 -9520)">
    <g id="Group_16693" data-name="Group 16693" transform="translate(5389.193 9529.192)">
      <g id="Group_16692" data-name="Group 16692">
        <path id="Path_2673" data-name="Path 2673" d="M49.907,182.524V181H30v3.809a9.983,9.983,0,0,0,4.65,8.43H45.207a10.352,10.352,0,0,0,1.922-1.524h2.017a5.339,5.339,0,0,0,5.332-5.332v-3.86Zm3.047,3.86a3.813,3.813,0,0,1-3.809,3.809h-.829a9.957,9.957,0,0,0,1.591-5.383v-.762h3.047Z" transform="translate(-30 -181)" fill="#afafaf"/>
      </g>
    </g>
    <g id="Group_16695" data-name="Group 16695" transform="translate(5393.799 9520)">
      <g id="Group_16694" data-name="Group 16694">
        <path id="Path_2674" data-name="Path 2674" d="M122.693,0l-.845,1.268a1.069,1.069,0,0,1,0,1.779,2.593,2.593,0,0,0,0,4.315l.845-1.268a1.069,1.069,0,0,1,0-1.779,2.593,2.593,0,0,0,0-4.315Z" transform="translate(-120.693)" fill="#afafaf"/>
      </g>
    </g>
    <g id="Group_16697" data-name="Group 16697" transform="translate(5397.607 9520)">
      <g id="Group_16696" data-name="Group 16696">
        <path id="Path_2675" data-name="Path 2675" d="M197.693,0l-.845,1.268a1.069,1.069,0,0,1,0,1.779,2.593,2.593,0,0,0,0,4.315l.845-1.268a1.069,1.069,0,0,1,0-1.779,2.593,2.593,0,0,0,0-4.315Z" transform="translate(-195.693)" fill="#afafaf"/>
      </g>
    </g>
    <g id="Group_16699" data-name="Group 16699" transform="translate(5401.417 9520)">
      <g id="Group_16698" data-name="Group 16698">
        <path id="Path_2676" data-name="Path 2676" d="M272.693,0l-.845,1.268a1.069,1.069,0,0,1,0,1.779,2.593,2.593,0,0,0,0,4.315l.845-1.268a1.069,1.069,0,0,1,0-1.779,2.593,2.593,0,0,0,0-4.315Z" transform="translate(-270.693)" fill="#afafaf"/>
      </g>
    </g>
    <g id="Group_16701" data-name="Group 16701" transform="translate(5387.67 9542.954)">
      <g id="Group_16700" data-name="Group 16700">
        <path id="Path_2677" data-name="Path 2677" d="M0,452a3.047,3.047,0,0,0,3.047,3.047h16.86A3.047,3.047,0,0,0,22.954,452Z" transform="translate(0 -452)" fill="#afafaf"/>
      </g>
    </g>
  </g>
</svg>
