<svg id="clutery-for-lunch" xmlns="http://www.w3.org/2000/svg" width="29.013" height="20.797" viewBox="0 0 29.013 20.797">
  <path id="Path_2672" data-name="Path 2672" d="M14.738,106.068A9.662,9.662,0,1,1,24.4,96.406,9.673,9.673,0,0,1,14.738,106.068Zm0-17.943a8.281,8.281,0,1,0,8.281,8.281A8.29,8.29,0,0,0,14.738,88.126Zm0,1.5a6.778,6.778,0,1,0,6.778,6.778A6.786,6.786,0,0,0,14.738,89.628Zm-9.4,3.018c0-.007,0-.015,0-.022s0-.015,0-.022L5.1,87.32a.691.691,0,0,0-1.38.063l.207,4.559H3.361V87.352a.691.691,0,0,0-1.381,0v4.591H1.413l.207-4.559A.691.691,0,0,0,.24,87.32L0,92.6c0,.008,0,.015,0,.022s0,.015,0,.022A2.683,2.683,0,0,0,1.5,94.99l-.111,11.235a1.182,1.182,0,0,0,.348.848,1.329,1.329,0,0,0,1.868,0,1.182,1.182,0,0,0,.348-.848L3.841,94.99A2.683,2.683,0,0,0,5.34,92.646Zm-1.608.678a1.283,1.283,0,0,1-2.124,0Zm25.281-.318a28.448,28.448,0,0,0-.617-5.024,1.621,1.621,0,0,0-1.584-1.295h-.017A1.618,1.618,0,0,0,25.178,88.3v17.772a1.384,1.384,0,0,0,1.383,1.383h.434a1.384,1.384,0,0,0,1.383-1.383V98.36c0-.006,0-.011,0-.017A19.4,19.4,0,0,0,29.013,93.006Zm-2.218-4.938h.017a.235.235,0,0,1,.231.187,27.1,27.1,0,0,1,.59,4.751,18.968,18.968,0,0,1-.506,4.664H26.56V88.3A.235.235,0,0,1,26.795,88.067Z" transform="translate(0 -86.661)" fill="#afafaf"/>
</svg>
