<svg xmlns="http://www.w3.org/2000/svg" width="18.031" height="21.098" viewBox="0 0 18.031 21.098">
  <g id="Group_17271" data-name="Group 17271" transform="translate(-13038.284 -6963.04)">
    <path id="Path_2095" data-name="Path 2095" d="M52.614,0H43.12V21.1h9.494a2.62,2.62,0,0,0,2.627-2.616V2.627A2.63,2.63,0,0,0,52.614,0ZM45.281,3.446H51.6V7.153H45.281Zm7.14,9.545a3.216,3.216,0,0,1-.987,1.518L48.441,17.5l-3.409-3.41a2.715,2.715,0,0,1,3.409-4.122,2.715,2.715,0,0,1,3.979,3.021ZM37.21,12.75v1.236h1.531V12.75Zm0-5.626V8.36h1.531V7.124ZM38.741,0V4.311h1.531V5.547H38.741V7.124h1.531V8.36H38.741V9.931h1.531v1.236H38.741V12.75h1.531v1.236H38.741v1.577h1.531V16.8H38.741v4.3h3.143V0ZM37.273,4.311V5.547h1.468V4.311Zm-.063,5.62v1.236h1.531V9.931Zm0,5.631V16.8h1.531V15.562Z" transform="translate(13001.074 6963.04)" fill="#4885ed"/>
    <path id="Path_2096" data-name="Path 2096" d="M246.77,265.7l-2.5,2.5-2.495-2.5a1.5,1.5,0,0,1,.535-2.276c.774-.354,1.389.066,1.96.546a2.373,2.373,0,0,1,1.084-.655,1.478,1.478,0,0,1,1.411,2.384Z" transform="translate(12805.241 6710.601)" fill="#4885ed"/>
    <path id="Path_2097" data-name="Path 2097" d="M263.08,113.62h3.85v1.235h-3.85Z" transform="translate(12784.511 6854.102)" fill="#4885ed"/>
  </g>
</svg>
