<svg xmlns="http://www.w3.org/2000/svg" width="27.513" height="27.605" viewBox="0 0 27.513 27.605">
  <g id="fruits" transform="translate(-0.08)">
    <g id="Group_16703" data-name="Group 16703" transform="translate(0.08 4.601)">
      <g id="Group_16702" data-name="Group 16702">
        <path id="Path_2678" data-name="Path 2678" d="M9.765,18.711a11.779,11.779,0,0,0,2.945,7.672A10.26,10.26,0,0,1,9.132,27C4.06,27,.08,23.507.08,19.056a7.7,7.7,0,0,1,1.564-4.647c.023-.023.035-.046.058-.058A10.282,10.282,0,0,0,3.853,8.865,5.086,5.086,0,0,1,9.132,4a5.075,5.075,0,0,1,5.279,4.842,7.974,7.974,0,0,0,.7,2.91A6.758,6.758,0,0,0,9.765,18.711Z" transform="translate(-0.08 -4)" fill="#afafaf"/>
      </g>
    </g>
    <g id="Group_16705" data-name="Group 16705" transform="translate(8.039)">
      <g id="Group_16704" data-name="Group 16704">
        <path id="Path_2679" data-name="Path 2679" d="M12.751,0A5.758,5.758,0,0,0,7,5.751a1.15,1.15,0,1,0,2.3,0A3.455,3.455,0,0,1,12.751,2.3a1.15,1.15,0,0,0,0-2.3Z" transform="translate(-7)" fill="#afafaf"/>
      </g>
    </g>
    <g id="Group_16707" data-name="Group 16707" transform="translate(18.391 9.202)">
      <g id="Group_16706" data-name="Group 16706">
        <path id="Path_2680" data-name="Path 2680" d="M21.751,8A5.758,5.758,0,0,0,16,13.751a1.15,1.15,0,0,0,2.3,0A3.455,3.455,0,0,1,21.751,10.3a1.15,1.15,0,0,0,0-2.3Z" transform="translate(-16 -8)" fill="#afafaf"/>
      </g>
    </g>
    <g id="Group_16709" data-name="Group 16709" transform="translate(11.49 13.802)">
      <g id="Group_16708" data-name="Group 16708">
        <path id="Path_2681" data-name="Path 2681" d="M20.065,12a5.327,5.327,0,0,0-2.014.392A5.327,5.327,0,0,0,16.037,12C12.257,12,10,14.059,10,17.507c0,3.836,2.637,8.3,6.037,8.3a5.3,5.3,0,0,0,2.013-.393,5.324,5.324,0,0,0,2.015.393c3.4,0,6.037-4.459,6.037-8.3C26.1,14.059,23.846,12,20.065,12Z" transform="translate(-10 -12)" fill="#afafaf"/>
      </g>
    </g>
  </g>
</svg>
