<svg xmlns="http://www.w3.org/2000/svg" width="21.081" height="21.083" viewBox="0 0 21.081 21.083">
  <path id="social-media" d="M20.514,9.169h0l-8.6-8.6a1.94,1.94,0,0,0-2.745,0l-8.6,8.6-.009.009a1.94,1.94,0,0,0,1.292,3.307l.06,0h.343v6.329a2.274,2.274,0,0,0,2.272,2.271H7.894a.618.618,0,0,0,.618-.618V15.5a1.037,1.037,0,0,1,1.036-1.036h1.985A1.037,1.037,0,0,1,12.569,15.5v4.962a.618.618,0,0,0,.618.618h3.365a2.274,2.274,0,0,0,2.272-2.271V12.482h.318a1.941,1.941,0,0,0,1.374-3.313Zm0,0" transform="translate(0 0.001)" fill="#dfdfdf"/>
</svg>
