<svg id="hot-food" xmlns="http://www.w3.org/2000/svg" width="28.972" height="28.973" viewBox="0 0 28.972 28.973">
  <path id="Path_2682" data-name="Path 2682" d="M222.534,2.767V1.656a1.656,1.656,0,0,0-3.311,0V2.793a13.334,13.334,0,0,1,3.311-.026Zm0,0" transform="translate(-204.997 0)" fill="#afafaf"/>
  <path id="Path_2683" data-name="Path 2683" d="M91.594,299.639l-.011.007-4.3,2.606a3.545,3.545,0,0,1,.137.742.52.52,0,0,1-.478.557l-6.661.509-.04,0a.519.519,0,0,1-.039-1.037l6.09-.465a2.506,2.506,0,0,0-2.592-1.791l-4.053.309a5.379,5.379,0,0,1-2.364-.355l-.433-.17a6.218,6.218,0,0,0-6.266,1l.445,5.834.616-.417a3.066,3.066,0,0,1,2.247-.485l7.057,1.211a6.413,6.413,0,0,0,3.86-.843l8.834-7.112a1.758,1.758,0,0,0-2.051-.1Zm0,0" transform="translate(-66.01 -279.922)" fill="#afafaf"/>
  <path id="Path_2684" data-name="Path 2684" d="M47.63,227.537a2.941,2.941,0,0,0,2.656,1.62H68.9a2.94,2.94,0,0,0,2.655-1.62l1.013-2.146H46.617Zm0,0" transform="translate(-43.598 -210.757)" fill="#afafaf"/>
  <path id="Path_2685" data-name="Path 2685" d="M.117,308.24l3.408-.26.665,8.717-3.408.26Zm0,0" transform="translate(-0.117 -287.984)" fill="#afafaf"/>
  <path id="Path_2686" data-name="Path 2686" d="M93.512,60.3a11.853,11.853,0,0,0-15.853,0,9.91,9.91,0,0,0-3.245,6.838H96.758A9.907,9.907,0,0,0,93.512,60.3Zm0,0" transform="translate(-69.591 -53.544)" fill="#afafaf"/>
</svg>
