<svg xmlns="http://www.w3.org/2000/svg" width="21.249" height="28.992" viewBox="0 0 21.249 28.992">
  <path id="Icon_metro-steps" data-name="Icon metro-steps" d="M12.452,3.856c-2.263,0-4.1,3.021-4.1,6.748a59.074,59.074,0,0,0,1.024,7.668c.4,2.66,1.376,4.864,3.073,4.864s2.834-1.47,2.834-4.156c0-.915-.752-2.372-.786-3.616-.061-2.243,1.5-3.138,1.5-5.212,0-3.727-1.29-6.3-3.553-6.3Zm11.055,7.712c-2.262,0-3.553,2.569-3.553,6.3,0,2.074,1.565,2.969,1.5,5.212-.033,1.244-.786,2.7-.786,3.616,0,2.687,1.137,4.156,2.834,4.156s2.672-2.2,3.073-4.864A59.074,59.074,0,0,0,27.6,18.316c0-3.727-1.834-6.748-4.1-6.748Z" transform="translate(-7.355 -2.856)" fill="none" stroke="#23233c" stroke-width="2"/>
</svg>
