<svg xmlns="http://www.w3.org/2000/svg" width="18.504" height="21.147" viewBox="0 0 18.504 21.147">
  <g id="Group_17272" data-name="Group 17272" transform="translate(-13195.127 -6962.96)">
    <path id="Icon_awesome-calendar-alt" data-name="Icon awesome-calendar-alt" d="M0,19.165a1.983,1.983,0,0,0,1.983,1.983H16.521A1.983,1.983,0,0,0,18.5,19.165V7.93H0Zm13.217-8.1a.5.5,0,0,1,.5-.5h1.652a.5.5,0,0,1,.5.5v1.652a.5.5,0,0,1-.5.5H13.713a.5.5,0,0,1-.5-.5Zm0,5.287a.5.5,0,0,1,.5-.5h1.652a.5.5,0,0,1,.5.5v1.652a.5.5,0,0,1-.5.5H13.713a.5.5,0,0,1-.5-.5ZM7.93,11.069a.5.5,0,0,1,.5-.5h1.652a.5.5,0,0,1,.5.5v1.652a.5.5,0,0,1-.5.5H8.426a.5.5,0,0,1-.5-.5Zm0,5.287a.5.5,0,0,1,.5-.5h1.652a.5.5,0,0,1,.5.5v1.652a.5.5,0,0,1-.5.5H8.426a.5.5,0,0,1-.5-.5ZM2.643,11.069a.5.5,0,0,1,.5-.5H4.791a.5.5,0,0,1,.5.5v1.652a.5.5,0,0,1-.5.5H3.139a.5.5,0,0,1-.5-.5Zm0,5.287a.5.5,0,0,1,.5-.5H4.791a.5.5,0,0,1,.5.5v1.652a.5.5,0,0,1-.5.5H3.139a.5.5,0,0,1-.5-.5ZM16.521,2.643H14.539V.661A.663.663,0,0,0,13.878,0H12.556A.663.663,0,0,0,11.9.661V2.643H6.609V.661A.663.663,0,0,0,5.948,0H4.626a.663.663,0,0,0-.661.661V2.643H1.983A1.983,1.983,0,0,0,0,4.626V6.609H18.5V4.626A1.983,1.983,0,0,0,16.521,2.643Z" transform="translate(13195.127 6962.96)" fill="#dfdfdf"/>
  </g>
</svg>
