<svg id="water-bottle_1_" data-name="water-bottle (1)" xmlns="http://www.w3.org/2000/svg" width="13.222" height="30.222" viewBox="0 0 13.222 30.222">
  <g id="Group_16711" data-name="Group 16711" transform="translate(0 5.667)">
    <g id="Group_16710" data-name="Group 16710">
      <path id="Path_2687" data-name="Path 2687" d="M157.222,104.972a2.823,2.823,0,0,0-1.437-2.452,1.869,1.869,0,0,0,1.437-1.8,1.747,1.747,0,0,0-.206-.825,6.674,6.674,0,0,0-2.982-3.9h-6.845a6.677,6.677,0,0,0-2.984,3.9,1.779,1.779,0,0,0-.2.825,1.869,1.869,0,0,0,1.437,1.8,2.812,2.812,0,0,0,0,4.907,1.861,1.861,0,0,0-1.439,1.8v9.444a1.89,1.89,0,0,0,1.889,1.889h9.444a1.89,1.89,0,0,0,1.889-1.889v-9.444a1.862,1.862,0,0,0-1.439-1.8A2.818,2.818,0,0,0,157.222,104.972Z" transform="translate(-144 -96)" fill="#afafaf"/>
    </g>
  </g>
  <g id="Group_16713" data-name="Group 16713" transform="translate(2.833)">
    <g id="Group_16712" data-name="Group 16712">
      <path id="Path_2688" data-name="Path 2688" d="M198.611,0h-5.667A.945.945,0,0,0,192,.944V2.833a.945.945,0,0,0,.944.944h5.667a.945.945,0,0,0,.944-.944V.944A.945.945,0,0,0,198.611,0Z" transform="translate(-192)" fill="#afafaf"/>
    </g>
  </g>
</svg>
